PathFileType	4	(X/Y/Z)	 s06c0102.trc
DataRate	CameraRate	NumFrames	NumMarkers	Units	OrigDataRate	OrigDataStartFrame	OrigNumFrames
200	200	4	48	mm	200	1251	2000
Frame#	Time	racr			lacr			c7			jug			rlel			rdr			llel			ldr			s2			lic			ric			lasi			rasi			rpsi			lpsi			rgt			lgt			rth1			rth2			rth3			rth4			rlfc			rmfc			rsh1			rsh2			rsh3			rsh4			rlmal			rcal			rtoe			rmt5			lth1			lth2			lth4			lth3			llfc			lmfc			llmal			lcal			lmt5			lsh1			lsh2			lsh3			lsh4			ltoe			SBIKE			LBIKE			RBIKE			
		X1	Y1	Z1	X2	Y2	Z2	X3	Y3	Z3	X4	Y4	Z4	X5	Y5	Z5	X6	Y6	Z6	X7	Y7	Z7	X8	Y8	Z8	X9	Y9	Z9	X10	Y10	Z10	X11	Y11	Z11	X12	Y12	Z12	X13	Y13	Z13	X14	Y14	Z14	X15	Y15	Z15	X16	Y16	Z16	X17	Y17	Z17	X18	Y18	Z18	X19	Y19	Z19	X20	Y20	Z20	X21	Y21	Z21	X22	Y22	Z22	X23	Y23	Z23	X24	Y24	Z24	X25	Y25	Z25	X26	Y26	Z26	X27	Y27	Z27	X28	Y28	Z28	X29	Y29	Z29	X30	Y30	Z30	X31	Y31	Z31	X32	Y32	Z32	X33	Y33	Z33	X34	Y34	Z34	X35	Y35	Z35	X36	Y36	Z36	X37	Y37	Z37	X38	Y38	Z38	X39	Y39	Z39	X40	Y40	Z40	X41	Y41	Z41	X42	Y42	Z42	X43	Y43	Z43	X44	Y44	Z44	X45	Y45	Z45	X46	Y46	Z46	X47	Y47	Z47	X48	Y48	Z48	
1251	6.2550	498.073278	1288.942155	-63.817452	529.444208	1269.415037	-351.061748	508.644535	1351.171637	-211.278362	472.654409	1186.449878	-198.619012	520.283624	1048.602105	46.797228	714.120309	928.520194	-42.562726	500.556284	1026.599671	-469.515991	706.527762	930.259726	-401.052192	-33.747122	1149.923902	-225.204399	133.069668	1125.494160	-388.973966	95.288652	1146.121575	-59.453185	156.025250	1077.539554	-350.950333	128.755360	1103.474967	-89.354522	-5.808869	1194.823535	-205.707897	-6.138350	1184.460132	-263.517556	84.282242	1089.253469	-20.617901	104.521196	1034.806881	-414.767755	197.776618	1042.245111	-13.758220	287.811208	1028.134151	-17.444134	355.292169	974.439400	-13.859454	298.566931	1056.837284	-40.343685	423.187852	892.492100	-35.776520	414.991980	868.215824	-148.848614	348.349141	793.460793	-17.791668	302.403627	723.832628	-40.536094	226.426907	679.406059	-44.946687	320.680386	710.283842	-74.475756	156.898192	627.961377	-54.490499	92.697801	643.682032	-105.091351	278.376144	438.852161	-94.977278	193.110152	493.346052	-29.947486	137.796697	909.608078	-430.594834	193.624206	842.868844	-423.894022	226.095227	858.269691	-413.837001	208.386009	754.986197	-416.001983	232.744752	638.219575	-396.591085	236.353221	621.179192	-280.079248	186.977087	271.757867	-376.197190	118.545200	266.334345	-327.793799	284.876093	161.667742	-403.602461	218.785111	529.666274	-416.242060	231.675880	446.199651	-395.976662	201.137992	362.946256	-389.126438	260.336356	448.333625	-369.124794	368.921560	137.444343	-346.421016	-203.141369	869.346510	-207.016208	-49.368451	84.210120	-413.923523	-48.838935	80.478730	-16.427731	
1252	6.2600	497.845013	1288.764198	-63.392454	530.063482	1269.018299	-350.304901	509.033076	1350.603004	-210.847997	472.695962	1185.938149	-197.905420	519.407558	1047.904275	46.553565	713.495339	929.090218	-42.743431	500.922994	1027.038933	-470.265969	706.946436	929.872399	-401.553661	-33.438601	1150.490124	-226.485479	134.378307	1125.272830	-389.574060	94.881832	1147.599342	-60.423901	156.646474	1076.640548	-351.777613	128.035568	1104.217706	-89.777593	-5.534626	1195.600353	-207.365212	-5.647274	1184.944820	-264.777695	84.161648	1092.872420	-21.641471	104.463322	1034.709508	-415.640554	198.401022	1047.523338	-13.153112	287.701099	1033.969607	-18.660173	356.028303	981.476867	-13.699497	298.130145	1062.662244	-41.966811	425.253801	900.072619	-36.692042	417.182830	875.559723	-150.353071	352.811254	800.057602	-18.769237	307.943179	729.538621	-41.136904	232.733907	683.950602	-45.152172	326.433605	715.982403	-75.111734	163.870052	630.410953	-54.498257	99.192388	644.739573	-104.992002	289.310084	444.045612	-95.272731	203.022608	496.738873	-30.059425	136.099586	908.924915	-431.797342	191.189303	841.492831	-425.718623	223.849937	856.410705	-415.744225	204.856748	753.473111	-418.708033	228.482989	636.506200	-397.757747	233.289249	619.469019	-280.993476	178.405122	270.516887	-376.265386	110.199302	266.070425	-327.705945	274.831226	158.198043	-403.075750	213.796120	527.954687	-417.257115	225.624940	444.407063	-396.492964	194.124367	361.646840	-389.502741	254.298275	446.385899	-369.882850	358.553851	133.126640	-346.467863	-203.166495	869.379093	-207.013901	-49.374491	84.220955	-413.924673	-48.876339	80.587210	-16.430226	
1253	6.2650	497.663077	1288.291706	-63.090825	530.688797	1268.273564	-349.616123	509.528195	1349.944557	-210.536508	472.649751	1185.364739	-197.517483	517.872147	1047.403115	46.640957	712.943821	929.457809	-42.725167	501.339318	1027.232500	-470.958901	707.374616	929.545248	-401.873096	-33.260320	1151.132678	-227.724699	135.562982	1124.906195	-390.113224	93.417016	1148.370478	-62.675998	157.057217	1075.590374	-352.682608	126.160980	1104.292991	-91.620055	-5.180571	1196.108435	-208.920237	-5.288805	1185.253401	-265.885583	84.389007	1095.919958	-22.873856	104.292221	1034.550116	-416.489105	198.027549	1051.688499	-14.520008	287.533453	1039.319424	-20.021723	356.478032	987.910195	-13.984366	297.577675	1067.729854	-43.589160	427.600829	907.341396	-38.277183	419.135680	882.462946	-151.503958	357.174878	805.866670	-19.895794	313.436030	734.054735	-42.309328	239.163031	687.599344	-45.235729	332.153838	721.032771	-75.679927	170.906806	632.496253	-54.327752	106.012281	644.834148	-105.663693	300.411118	448.714592	-95.525515	212.947885	499.386266	-30.240498	134.564966	908.198440	-432.948293	189.062554	840.176130	-427.545815	221.991158	854.789190	-417.548935	201.851463	752.073499	-420.871008	224.825540	634.899382	-398.671061	230.880942	618.034011	-281.627690	169.456814	269.653541	-376.159622	101.412013	265.897136	-327.692958	264.471729	155.847922	-403.045606	209.232066	526.428164	-418.031351	219.652462	442.875741	-396.869678	186.814777	360.568027	-389.703896	248.394087	444.401828	-370.385289	347.914916	129.784424	-346.352275	-203.200441	869.401905	-207.056419	-49.370079	84.234221	-413.927538	-48.878590	80.586480	-16.430340	
1254	6.2700	497.541622	1287.755044	-62.698022	531.393588	1267.382422	-348.899686	510.108232	1349.169377	-210.177064	472.652298	1184.689382	-197.022097	516.620376	1046.634217	46.625227	712.434382	929.566385	-42.401028	501.847048	1027.176393	-471.584190	707.676557	929.296440	-402.037436	-33.301005	1151.580433	-228.534304	136.513078	1124.370762	-390.607425	93.381269	1149.244042	-63.385070	157.366175	1074.482332	-353.520592	125.797403	1104.564034	-91.944820	-5.068396	1196.588403	-210.236410	-4.950194	1185.535307	-266.943945	84.477288	1098.622060	-24.044604	104.037977	1034.280744	-417.265878	197.328322	1055.117307	-16.049149	287.402343	1043.944748	-21.380999	356.321978	993.167000	-14.954910	296.932511	1072.202349	-45.156807	429.351155	914.045435	-39.529352	420.838593	888.318915	-153.001856	361.365448	810.888226	-21.247636	318.877426	738.184677	-43.260144	245.682897	690.258912	-45.638456	337.704016	725.254423	-76.747984	177.845931	633.373383	-54.595560	112.282675	644.042400	-105.571563	311.624127	452.786703	-95.794252	223.058881	501.463576	-30.323119	133.226987	907.454297	-434.012396	187.248467	838.956228	-429.324717	220.361792	853.385765	-419.408920	199.429881	750.674280	-422.808114	221.989157	633.530501	-399.373358	228.935853	616.708379	-282.129680	160.226804	269.168541	-375.956453	92.082870	266.049880	-327.502155	253.953644	154.238936	-402.909785	205.111358	525.183499	-418.572018	213.756274	441.538507	-397.032002	179.285062	359.905548	-389.740800	242.569546	442.460684	-370.618549	337.145613	127.268968	-346.325219	-203.196228	869.422303	-207.131479	-49.365473	84.236483	-413.942220	-48.854877	80.644837	-16.452318	
